<svg version="1.2" xmlns="http://www.w3.org/2000/svg" viewBox="0 0 256 64" width="256" height="64">
	<style>
		.s0 { fill: #6f2727 } 
		.s1 { fill: #ffffff } 
	</style>
	<path id="KBSystems" class="s0" aria-label="KBSystems"  d="m24 44h-6v-28.4h6v12.4l10.4-12.4h7l-10.4 12.5 11.1 15.9h-6.9l-8.2-11.8-3 3.4zm33.4 0h-12.4v-28.4h11q5.3 0 8.1 1.9 2.8 1.9 2.8 5.9 0 1.7-0.7 3-0.7 1.3-2.2 2.1-1.3 0.7-3.3 0.9v-0.1q3.6 0.3 5.5 2.1 1.9 1.8 1.9 4.8 0 4-2.8 5.9-2.8 1.9-7.9 1.9zm-6.4-12.2v7.3h6.1q2.2 0 3.5-0.9 1.3-0.9 1.3-2.7 0-1.8-1.3-2.7-1.3-1-3.5-1zm0-11.2v6.8h4.7q2.3 0 3.6-0.8 1.4-0.9 1.4-2.6 0-1.8-1.3-2.6-1.3-0.8-3.7-0.8z"/>
	<path id="KBSystems" class="s1" aria-label="KBSystems"  d="m84.2 44.6q-3.7 0-6.3-1.2-2.6-1.2-4.1-3.5-1.5-2.2-1.7-5.2l6.1-0.4q0.2 1.7 1 2.9 0.7 1.2 2 1.8 1.2 0.6 3.1 0.6 1.5 0 2.5-0.4 1.1-0.3 1.6-1 0.6-0.8 0.6-1.9 0-1-0.5-1.7-0.4-0.8-1.8-1.4-1.3-0.6-4-1.2-3.6-0.8-5.9-1.8-2.2-1.1-3.2-2.7-1-1.6-1-4 0-2.5 1.3-4.4 1.3-2 3.7-3.1 2.3-1 5.7-1 3.5 0 5.9 1.2 2.5 1.2 3.8 3.4 1.4 2.2 1.7 5l-6.1 0.3q-0.1-1.5-0.8-2.6-0.7-1.1-1.8-1.7-1.2-0.6-2.8-0.6-2.1 0-3.3 0.9-1.1 0.9-1.1 2.4 0 1.1 0.5 1.8 0.5 0.7 1.8 1.2 1.3 0.5 3.6 1 3.9 0.8 6.2 2 2.3 1.2 3.3 2.9 1 1.7 1 3.8 0 2.7-1.4 4.6-1.3 2-3.8 3-2.4 1-5.8 1zm20.3 5.4h-4.1v-4.5h2.9q1 0 1.5-0.3 0.5-0.3 0.7-1l0.5-1.3h-1.6l-7.6-20.3h6.2l4.9 14.7 4.6-14.7h6.1l-8.2 23.4q-0.8 2.2-2.2 3.1-1.3 0.9-3.7 0.9zm26.3-5.5q-3.3 0-5.6-0.9-2.2-1-3.4-2.6-1.2-1.6-1.3-3.8l6.1-0.2q0.2 1.6 1.2 2.4 1 0.8 3 0.8 1.6 0 2.5-0.5 0.9-0.5 0.9-1.6 0-0.7-0.4-1.1-0.3-0.5-1.2-0.8-0.9-0.3-2.7-0.6-3.4-0.6-5.4-1.4-1.9-0.8-2.7-2.1-0.8-1.3-0.8-3.2 0-3 2.4-4.9 2.4-1.9 7.1-1.9 3.1 0 5.1 0.9 2.1 1 3.2 2.7 1.2 1.6 1.4 3.8l-6 0.2q-0.1-1.1-0.6-1.8-0.5-0.8-1.3-1.1-0.8-0.5-1.8-0.5-1.6 0-2.5 0.7-0.8 0.6-0.8 1.7 0 0.8 0.3 1.3 0.4 0.5 1.3 0.8 0.9 0.3 2.4 0.6 3.4 0.5 5.4 1.3 2 0.9 2.9 2.2 0.9 1.2 0.9 3.1 0 2.1-1.2 3.5-1.2 1.5-3.4 2.3-2.1 0.7-5 0.7zm25.9-0.5h-5.2q-3.3 0-4.9-1.5-1.5-1.6-1.5-4.9v-20.1h6v19.3q0 1.6 0.6 2.2 0.7 0.5 2 0.5h3zm0-16.9h-15.1v-4.5h15.1zm13.6 17.4q-3.3 0-5.7-1.3-2.5-1.4-3.8-3.9-1.3-2.6-1.3-6 0-3.3 1.3-5.8 1.3-2.6 3.8-3.9 2.4-1.5 5.6-1.5 3.2 0 5.6 1.4 2.4 1.4 3.6 4 1.3 2.6 1.3 6.2v1.3h-15q0.1 2.5 1.3 3.8 1.3 1.2 3.4 1.2 1.5 0 2.5-0.7 1.1-0.6 1.5-1.9l6 0.3q-0.8 3.2-3.6 5.1-2.6 1.7-6.5 1.7zm-4.6-13.2h8.9q-0.1-2.4-1.3-3.5-1.2-1.2-3.1-1.2-1.8 0-3.1 1.2-1.2 1.2-1.4 3.5zm23.9 12.8h-6v-21.5h5.4l0.2 5.2-0.5-0.3q0.4-1.7 1.3-2.9 0.9-1.2 2.2-1.8 1.3-0.7 2.8-0.7 2.7 0 4.3 1.6 1.7 1.5 2.2 4.2h-0.8q0.4-1.9 1.3-3.1 0.9-1.3 2.2-2 1.3-0.7 3-0.7 2.2 0 3.8 1 1.6 0.9 2.5 2.7 0.9 1.8 0.9 4.5v13.8h-6v-12.2q0-2.5-0.8-3.7-0.8-1.3-2.5-1.3-1.1 0-1.9 0.6-0.7 0.6-1.1 1.8-0.4 1.1-0.4 2.7v12.1h-5.4v-12.1q0-2.5-0.8-3.8-0.7-1.3-2.4-1.3-1.1 0-1.9 0.6-0.7 0.6-1.2 1.8-0.4 1.1-0.4 2.7zm39.2 0.5q-3.3 0-5.6-0.9-2.2-1-3.4-2.6-1.2-1.6-1.3-3.7l6.1-0.2q0.2 1.5 1.2 2.3 1 0.8 3 0.8 1.6 0 2.5-0.5 0.9-0.5 0.9-1.6 0-0.6-0.4-1.1-0.3-0.4-1.2-0.8-0.9-0.3-2.7-0.6-3.4-0.6-5.4-1.4-1.9-0.8-2.7-2.1-0.8-1.3-0.8-3.1 0-3.1 2.4-5 2.4-1.9 7.1-1.9 3.1 0 5.1 1 2.1 0.9 3.2 2.6 1.2 1.6 1.4 3.8l-6 0.2q-0.1-1-0.6-1.8-0.5-0.7-1.3-1.1-0.8-0.4-1.8-0.4-1.6 0-2.5 0.6-0.8 0.7-0.8 1.8 0 0.7 0.3 1.3 0.4 0.4 1.3 0.8 0.9 0.3 2.4 0.5 3.4 0.5 5.4 1.3 2 0.9 2.9 2.2 0.9 1.3 0.9 3.1 0 2.1-1.2 3.5-1.2 1.5-3.4 2.3-2.1 0.7-5 0.7z"/>
</svg>